<?xml version="1.0" encoding="UTF-8"?>
<svg xmlns="http://www.w3.org/2000/svg" width="1280" height="720" viewBox="0 0 1280 720">
  <defs>
    <linearGradient id="g" x1="0" y1="0" x2="1" y2="1">
      <stop offset="0%" stop-color="#6366F1"/>
      <stop offset="100%" stop-color="#A855F7"/>
    </linearGradient>
  </defs>
  <rect width="1280" height="720" fill="#0f1117"/>
  <rect x="0" y="0" width="1280" height="36" fill="#0a0c10"/>
  <circle cx="20" cy="18" r="6" fill="#EF4444"/><circle cx="40" cy="18" r="6" fill="#F59E0B"/><circle cx="60" cy="18" r="6" fill="#10B981"/>
  <text x="90" y="22" fill="#6b7280" font-family="Segoe UI, Arial, sans-serif" font-size="12">Finstat.kz</text>
  
  
  <rect x="0" y="36" width="200" height="684" fill="#141720"/>
  <text x="24" y="68" fill="url(#g)" font-size="18" font-weight="700" font-family="Segoe UI, Arial, sans-serif">F</text>
  <rect x="12" y="52" width="176" height="28" rx="6" fill="#1a1d27" stroke="#2a2f3d"/>
  <text x="24" y="71" fill="#6b7280" font-size="10" font-family="Segoe UI, Arial, sans-serif">🔍 контрагент</text>
  <rect x="8" y="66" width="184" height="24" rx="6" fill="#6366F125"/><text x="24" y="80" fill="#6366F1" font-family="Segoe UI, Arial, sans-serif" font-size="11" font-weight="600">⬡ Главная</text><text x="24" y="108" fill="#9ca3af" font-family="Segoe UI, Arial, sans-serif" font-size="11" font-weight="400">👥 Контрагенты</text><text x="24" y="136" fill="#9ca3af" font-family="Segoe UI, Arial, sans-serif" font-size="11" font-weight="400">📋 Заказы</text><text x="24" y="164" fill="#9ca3af" font-family="Segoe UI, Arial, sans-serif" font-size="11" font-weight="400">📦 Склад</text><text x="24" y="192" fill="#9ca3af" font-family="Segoe UI, Arial, sans-serif" font-size="11" font-weight="400">📒 Проводки</text><text x="24" y="220" fill="#9ca3af" font-family="Segoe UI, Arial, sans-serif" font-size="11" font-weight="400">◎ Сотрудники</text><text x="24" y="248" fill="#9ca3af" font-family="Segoe UI, Arial, sans-serif" font-size="11" font-weight="400">📊 СОНО</text>
  
  <rect x="220" y="56" width="1040" height="48" rx="8" fill="#1a1d27" stroke="#2a2f3d"/>
  <text x="240" y="86" fill="#e8eaef" font-size="14" font-weight="600" font-family="Segoe UI, Arial, sans-serif">Миграция из 1С</text>
  <text x="1160" y="86" fill="#9ca3af" font-size="11" font-family="Segoe UI, Arial, sans-serif">ТОО «Демо» · НДС</text>
  <circle cx="1224" cy="80" r="14" fill="#F59E0B30" stroke="#F59E0B"/>
  <text x="1224" y="84" text-anchor="middle" fill="#F59E0B" font-size="12">🔔</text>
  
  <rect x="240" y="140" width="1000" height="80" rx="8" fill="#0f1117" stroke="#2a2f3d"/>
  <rect x="260" y="168" width="960" height="24" rx="6" fill="url(#g)"/>
  <text x="260" y="158" fill="#9ca3af" font-size="10">Импорт контрагентов: 100%</text>
  
  <rect x="240" y="240" width="480" height="280" rx="10" fill="#0f1117" stroke="#2a2f3d"/>
  
  <text x="252" y="262" fill="#6b7280" font-family="Segoe UI, Arial, sans-serif" font-size="9" font-weight="600">Статус</text><text x="480" y="262" fill="#6b7280" font-family="Segoe UI, Arial, sans-serif" font-size="9" font-weight="600">Кол-во</text>
  <text x="252" y="274" fill="#9ca3af" font-family="Segoe UI, Arial, sans-serif" font-size="10" font-weight="600">✅ Импортировано</text><text x="480" y="274" fill="#9ca3af" font-family="Segoe UI, Arial, sans-serif" font-size="10" font-weight="400">847</text><line x1="248" y1="284" x2="712" y2="284" stroke="#2a2f3d" opacity="0.6"/><text x="252" y="302" fill="#9ca3af" font-family="Segoe UI, Arial, sans-serif" font-size="10" font-weight="600">⏭ Пропущено</text><text x="480" y="302" fill="#9ca3af" font-family="Segoe UI, Arial, sans-serif" font-size="10" font-weight="400">23</text><line x1="248" y1="312" x2="712" y2="312" stroke="#2a2f3d" opacity="0.6"/><text x="252" y="330" fill="#9ca3af" font-family="Segoe UI, Arial, sans-serif" font-size="10" font-weight="600">🔁 Дубликаты</text><text x="480" y="330" fill="#9ca3af" font-family="Segoe UI, Arial, sans-serif" font-size="10" font-weight="400">12</text><line x1="248" y1="340" x2="712" y2="340" stroke="#2a2f3d" opacity="0.6"/><text x="252" y="358" fill="#9ca3af" font-family="Segoe UI, Arial, sans-serif" font-size="10" font-weight="600">❌ Ошибки</text><text x="480" y="358" fill="#9ca3af" font-family="Segoe UI, Arial, sans-serif" font-size="10" font-weight="400">3</text>
  
  <rect x="740" y="240" width="468" height="280" rx="10" fill="#0f1117" stroke="#2a2f3d"/>
  <text x="754" y="260" fill="#e8eaef" font-family="Segoe UI, Arial, sans-serif" font-size="12" font-weight="600">Импорт по типам данных</text>
  
    <rect x="760" y="288.22222222222223" width="99" height="207.77777777777777" rx="4" fill="#10B981" opacity="0.9"/>
    <text x="809.5" y="512" text-anchor="middle" fill="#6b7280" font-family="Segoe UI, Arial, sans-serif" font-size="9">Контр.</text>
    <rect x="867" y="344.44444444444446" width="99" height="151.55555555555554" rx="4" fill="#6366F1" opacity="0.9"/>
    <text x="916.5" y="512" text-anchor="middle" fill="#6b7280" font-family="Segoe UI, Arial, sans-serif" font-size="9">Номенкл.</text>
    <rect x="974" y="386" width="99" height="110" rx="4" fill="#3B82F6" opacity="0.9"/>
    <text x="1023.5" y="512" text-anchor="middle" fill="#6b7280" font-family="Segoe UI, Arial, sans-serif" font-size="9">Сотрудн.</text>
    <rect x="1081" y="276" width="99" height="220" rx="4" fill="#A855F7" opacity="0.9"/>
    <text x="1130.5" y="512" text-anchor="middle" fill="#6b7280" font-family="Segoe UI, Arial, sans-serif" font-size="9">Проводки</text>
  <line x1="754" y1="496" x2="1194" y2="496" stroke="#2a2f3d"/>
  <text x="48" y="648" fill="#e8eaef" font-family="Segoe UI, Arial, sans-serif" font-size="18" font-weight="600">prepare</text>
  
  <text x="1264" y="710" text-anchor="end" fill="#6b7280" font-family="Segoe UI, Arial, sans-serif" font-size="10">Демо-данные для обучения</text>
</svg>